<mxfile host="app.diagrams.net" agent="Mozilla/5.0 (Windows NT 10.0; Win64; x64) AppleWebKit/537.36 (KHTML, like Gecko) Chrome/131.0.0.0 Safari/537.36" version="25.0.3">
  <diagram name="Page-1" id="QiGNwmnF0ydiQjV3WvcA">
    <mxGraphModel dx="869" dy="447" grid="1" gridSize="10" guides="1" tooltips="1" connect="1" arrows="1" fold="1" page="1" pageScale="1" pageWidth="850" pageHeight="1100" math="0" shadow="0">
      <root>
        <mxCell id="0" />
        <mxCell id="1" parent="0" />
        <mxCell id="hOekY8qDoX06iNIJRlEA-7" style="edgeStyle=orthogonalEdgeStyle;rounded=0;orthogonalLoop=1;jettySize=auto;html=1;entryX=0.5;entryY=0;entryDx=0;entryDy=0;" edge="1" parent="1" source="hOekY8qDoX06iNIJRlEA-1" target="hOekY8qDoX06iNIJRlEA-6">
          <mxGeometry relative="1" as="geometry" />
        </mxCell>
        <mxCell id="hOekY8qDoX06iNIJRlEA-1" value="Lee el archivo como una cadena de texto" style="rounded=1;whiteSpace=wrap;html=1;" vertex="1" parent="1">
          <mxGeometry x="365" y="80" width="120" height="50" as="geometry" />
        </mxCell>
        <mxCell id="hOekY8qDoX06iNIJRlEA-4" value="Primer caracter es (&quot;)?" style="rhombus;whiteSpace=wrap;html=1;" vertex="1" parent="1">
          <mxGeometry x="348" y="250" width="155" height="100" as="geometry" />
        </mxCell>
        <mxCell id="hOekY8qDoX06iNIJRlEA-8" style="edgeStyle=orthogonalEdgeStyle;rounded=0;orthogonalLoop=1;jettySize=auto;html=1;entryX=0.5;entryY=0;entryDx=0;entryDy=0;" edge="1" parent="1" source="hOekY8qDoX06iNIJRlEA-6" target="hOekY8qDoX06iNIJRlEA-4">
          <mxGeometry relative="1" as="geometry" />
        </mxCell>
        <mxCell id="hOekY8qDoX06iNIJRlEA-6" value="Separa el texto en renglones usando el alto de linea (\n) como separador." style="rounded=0;whiteSpace=wrap;html=1;" vertex="1" parent="1">
          <mxGeometry x="313" y="160" width="225" height="60" as="geometry" />
        </mxCell>
      </root>
    </mxGraphModel>
  </diagram>
</mxfile>
